<svg width="287" height="173" viewBox="0 0 287 173" fill="none" xmlns="http://www.w3.org/2000/svg">
<g clip-path="url(#clip0)">
<g clip-path="url(#clip1)">
<g clip-path="url(#clip2)">
<path d="M16.64 6.22852H50.36C57.6172 6.22852 63.5 12.1113 63.5 19.3685V53.0885C63.5 60.3457 57.6172 66.2285 50.36 66.2285H16.64C9.38281 66.2285 3.5 60.3457 3.5 53.0885V19.3685C3.5 12.1113 9.38281 6.22852 16.64 6.22852Z" fill="url(#paint0_linear)"/>
<path d="M22.7286 49.7777L22.7343 49.7796L20.6828 53.3327C19.9339 54.6298 18.2755 55.0741 16.9785 54.3253C15.6817 53.5765 15.2371 51.9181 15.9859 50.621L17.4971 48.0035L17.6422 47.7523C17.9012 47.3801 18.5403 46.7374 19.8189 46.8584C19.8189 46.8584 22.8275 47.1849 23.0453 48.7486C23.0453 48.7486 23.0748 49.2631 22.7286 49.7777ZM51.8247 40.7027H45.4276C44.9919 40.6734 44.8018 40.5178 44.7268 40.4273L44.7222 40.4191L37.8744 28.5584L37.8655 28.5642L37.4549 27.9755C36.7818 26.9461 35.713 29.5786 35.713 29.5786C34.4368 32.512 35.8942 35.847 36.4021 36.855L45.9135 53.3292C46.6621 54.626 48.3205 55.0706 49.6178 54.3216C50.9146 53.5727 51.3592 51.9143 50.6101 50.6173L48.2319 46.4979C48.1857 46.3981 48.1056 46.1271 48.5933 46.1259H51.8247C53.3223 46.1259 54.5364 44.9119 54.5364 43.4142C54.5364 41.9166 53.3223 40.7025 51.8247 40.7025V40.7027ZM39.3995 44.389C39.3995 44.389 39.741 46.1259 38.4198 46.1259H14.7716C13.2739 46.1259 12.0599 44.9119 12.0599 43.4142C12.0599 41.9166 13.2739 40.7025 14.7716 40.7025H20.8513C21.8328 40.6458 22.0653 40.0791 22.0653 40.0791L22.071 40.0819L30.0069 26.3363L30.0046 26.3358C30.1492 26.0702 30.0287 25.8192 30.0079 25.7796L27.3868 21.24C26.638 19.9432 27.0824 18.2845 28.3794 17.5359C29.6764 16.7871 31.3349 17.2313 32.0837 18.5283L33.2992 20.6337L34.5125 18.532C35.2614 17.2352 36.9198 16.7906 38.2168 17.5397C39.5139 18.2885 39.9582 19.9467 39.2094 21.2438L28.1661 40.3711C28.1179 40.4876 28.1031 40.6704 28.4624 40.7025H35.0633L35.0647 40.767C35.0647 40.767 38.8799 40.8263 39.3995 44.389Z" fill="white"/>
</g>
<g clip-path="url(#clip3)">
<path opacity="0.5" d="M143.428 14.5177V31.763L158.392 23.1225V5.87695L143.428 14.5177Z" fill="#13A049"/>
<path opacity="0.5" d="M143.428 14.5177L128.464 5.87695V23.1584L143.428 31.7991V14.5177Z" fill="#A2CC39"/>
<path opacity="0.9" d="M158.392 5.87695L143.428 14.5177L128.464 5.87695L113.5 14.5177L143.428 31.7991L173.338 14.5177L158.392 5.87695Z" fill="url(#paint1_linear)"/>
<path d="M143.428 31.799L113.5 14.5176V31.799L128.464 40.4397V57.7033L143.428 66.344L158.392 57.7033V40.4397L173.338 31.799V14.5176L143.428 31.799Z" fill="url(#paint2_linear)"/>
<path d="M143.428 31.799V66.344L158.392 57.7033V40.4397L173.338 31.799V14.5176L143.428 31.799Z" fill="url(#paint3_linear)"/>
<path opacity="0.05" d="M143.428 49.0627V66.3441L158.392 57.7034L143.428 49.0627Z" fill="#231F20"/>
<path opacity="0.1" d="M143.428 66.3799V49.0985L128.464 57.7392L143.428 66.3799Z" fill="#231F20"/>
<path opacity="0.05" d="M128.464 23.1584L113.5 31.7991L128.464 40.4398L143.428 31.7991L128.464 23.1584Z" fill="#231F20"/>
<path opacity="0.05" d="M158.392 23.1584L143.428 31.7991L158.392 40.4398L173.338 31.7991L158.392 23.1584Z" fill="#231F20"/>
</g>
<g clip-path="url(#clip4)">
<path d="M241.872 1.15616C241.529 1.15837 241.191 1.24609 240.89 1.4114C239.902 1.95936 239.539 3.22944 240.087 4.21733L242.319 8.24765C236.941 11.5746 233.378 17.2577 233.378 23.7441V24.9492C232.345 23.7609 230.827 23.0107 229.131 23.0107C226.023 23.0107 223.5 25.534 223.5 28.6416V45.9874C223.5 49.0948 226.024 51.6183 229.131 51.6183C230.827 51.6183 232.345 50.8678 233.378 49.6795V52.1093C233.378 55.3852 236.059 58.0655 239.334 58.0655H240.846V65.7818C240.846 68.8896 243.369 71.4129 246.477 71.4129C249.584 71.4129 252.108 68.8894 252.108 65.7818V58.0655H254.722V65.7818C254.722 68.8896 257.246 71.4129 260.353 71.4129C263.461 71.4129 265.984 68.8894 265.984 65.7818V58.0655H267.496C270.771 58.0655 273.452 55.3852 273.452 52.1093V49.6795C274.485 50.8678 276.003 51.6183 277.699 51.6183C280.807 51.6183 283.33 49.0948 283.33 45.9874V28.6416C283.33 25.534 280.807 23.0107 277.699 23.0107C276.003 23.0107 274.485 23.7609 273.452 24.9492V23.948V23.8905C273.452 23.8296 273.452 23.7809 273.452 23.7441C273.452 17.2589 269.88 11.5814 264.505 8.25421L266.743 4.21733C267.291 3.22944 266.928 1.95936 265.94 1.4114C265.639 1.24609 265.301 1.15837 264.958 1.15616C264.228 1.14913 263.511 1.53397 263.134 2.21483L260.793 6.44296C258.505 5.59851 256.015 5.13562 253.415 5.13562C250.818 5.13562 248.323 5.59358 246.037 6.4364L243.696 2.21483C243.319 1.53397 242.603 1.1496 241.872 1.15616Z" fill="white"/>
<path d="M229.131 24.4774C226.812 24.4774 224.967 26.3227 224.967 28.6416V45.9874C224.967 48.3063 226.812 50.1516 229.131 50.1516C231.45 50.1516 233.296 48.3063 233.296 45.9874V28.6416C233.296 26.3227 231.45 24.4774 229.131 24.4774ZM277.699 24.4774C275.38 24.4774 273.535 26.3227 273.535 28.6416V45.9874C273.535 48.3063 275.38 50.1516 277.699 50.1516C280.018 50.1516 281.863 48.3063 281.863 45.9874V28.6416C281.863 26.3227 280.018 24.4774 277.699 24.4774Z" fill="#A4C639"/>
<path d="M246.477 44.2718C244.158 44.2718 242.313 46.117 242.313 48.4362V65.7818C242.313 68.1007 244.158 69.9459 246.477 69.9459C248.796 69.9459 250.641 68.1007 250.641 65.7818V48.4362C250.641 46.117 248.796 44.2718 246.477 44.2718ZM260.354 44.2718C258.034 44.2718 256.189 46.117 256.189 48.4362V65.7818C256.189 68.1007 258.034 69.9459 260.354 69.9459C262.673 69.9459 264.518 68.1007 264.518 65.7818V48.4362C264.518 46.117 262.673 44.2718 260.354 44.2718Z" fill="#A4C639"/>
<path d="M241.885 2.62313C241.787 2.62432 241.69 2.65061 241.604 2.69954C241.308 2.86407 241.21 3.20532 241.375 3.50297L244.308 8.80242C238.665 11.7391 234.852 17.3198 234.845 23.7248H271.985C271.977 17.3198 268.165 11.7389 262.522 8.80242L265.455 3.50321C265.62 3.20555 265.522 2.86407 265.225 2.69954C265.14 2.65058 265.043 2.62428 264.945 2.62313C264.734 2.62079 264.534 2.72625 264.422 2.92922L261.45 8.28586C259.019 7.20774 256.292 6.60235 253.415 6.60235C250.537 6.60235 247.811 7.2075 245.38 8.28586L242.408 2.92922C242.357 2.83519 242.282 2.75691 242.189 2.70292C242.097 2.64894 241.992 2.62134 241.885 2.62313H241.885ZM234.845 25.1916V52.1095C234.844 52.6994 234.959 53.2838 235.184 53.829C235.409 54.3743 235.74 54.8697 236.157 55.2868C236.574 55.7039 237.07 56.0345 237.615 56.2597C238.16 56.4848 238.744 56.6 239.334 56.5987H267.496C268.086 56.6 268.67 56.4848 269.215 56.2596C269.76 56.0345 270.256 55.7038 270.673 55.2867C271.09 54.8696 271.421 54.3741 271.646 53.8289C271.871 53.2836 271.986 52.6992 271.985 52.1093V25.1918H234.845V25.1916Z" fill="#A4C639"/>
<path d="M244.844 13.8276C243.996 13.8276 243.294 14.5294 243.294 15.3771C243.294 16.2251 243.996 16.9268 244.844 16.9268C245.692 16.9268 246.394 16.2251 246.394 15.3771C246.394 14.5294 245.692 13.8276 244.844 13.8276ZM261.986 13.8276C261.138 13.8276 260.436 14.5294 260.436 15.3771C260.436 16.2251 261.138 16.9268 261.986 16.9268C262.833 16.9268 263.535 16.2251 263.535 15.3771C263.535 14.5294 262.833 13.8276 261.986 13.8276Z" fill="white"/>
</g>
</g>
<g clip-path="url(#clip5)">
<g clip-path="url(#clip6)">
<path d="M28.5656 124.002C13.5506 124.002 1.78713 142.862 0.674133 158.791C5.38601 166.865 16.7485 169.899 28.5661 169.899C40.3827 169.899 51.7459 166.865 56.4554 158.791C55.3422 142.862 43.5802 124.002 28.5658 124.002" fill="#B6DEFF"/>
<path d="M52.5319 154.997C52.5319 154.997 49.2157 147.919 45.845 143.789C42.4718 139.658 38.3526 135.159 35.917 135.159C33.4828 135.159 26.6779 147.054 23.5561 147.054C20.4337 147.054 18.811 141.662 14.9721 141.662C11.1318 141.662 5.03038 154.665 5.03038 154.665L4.61694 156.869C4.61694 156.869 6.73663 166.147 28.9122 166.147C51.0886 166.147 52.8609 157.021 52.8609 157.021L52.5322 154.997" fill="#66CC66"/>
<path d="M23.9037 152.13C20.4597 152.13 18.6942 148.775 17.7369 146.704C16.8762 144.839 16.7272 141.894 14.2849 141.811C14.5248 141.717 14.7558 141.662 14.9724 141.662C18.8112 141.662 20.4339 147.054 23.5564 147.054C26.6781 147.054 33.483 135.159 35.9173 135.159C36.376 135.159 36.8927 135.319 37.4533 135.603C37.0386 135.549 36.5068 135.586 36.0971 135.992C35.3102 136.769 28.1674 152.13 23.9037 152.13Z" fill="#17AD49"/>
</g>
<g clip-path="url(#clip7)">
<path d="M150.203 162.731C149.848 165.382 148.076 167.675 145.595 168.695C144.38 169.204 143.063 169.357 141.746 169.204C140.481 169.051 139.215 168.643 137.898 167.879C136.075 166.859 134.252 165.28 132.126 162.935C135.468 158.807 137.493 155.036 138.253 151.673C138.607 150.093 138.658 148.666 138.506 147.34C138.304 146.067 137.848 144.894 137.139 143.875C135.569 141.582 132.936 140.256 129.999 140.256C127.062 140.256 124.429 141.633 122.86 143.875C122.15 144.894 121.695 146.067 121.492 147.34C121.29 148.666 121.341 150.144 121.746 151.673C122.505 155.036 124.581 158.858 127.873 162.986C125.797 165.331 123.923 166.91 122.1 167.93C120.783 168.695 119.517 169.102 118.252 169.255C116.947 169.401 115.626 169.227 114.403 168.746C111.922 167.726 110.15 165.432 109.796 162.782C109.644 161.508 109.745 160.234 110.251 158.807C110.403 158.297 110.657 157.789 110.909 157.177C111.264 156.362 111.669 155.495 112.074 154.628L112.125 154.527C115.618 146.933 119.366 139.186 123.265 131.644L123.417 131.338C123.822 130.574 124.226 129.759 124.632 128.994C125.037 128.179 125.492 127.414 126.049 126.751C127.113 125.528 128.531 124.865 130.1 124.865C131.67 124.865 133.088 125.528 134.151 126.751C134.708 127.414 135.164 128.179 135.569 128.994C135.974 129.759 136.379 130.574 136.784 131.338L136.936 131.644C140.784 139.237 144.532 146.983 148.026 154.577V154.628C148.431 155.444 148.785 156.362 149.19 157.177C149.443 157.789 149.696 158.297 149.848 158.807C150.253 160.132 150.405 161.407 150.203 162.731H150.203ZM129.999 160.336C127.265 156.871 125.492 153.609 124.885 150.857C124.632 149.685 124.581 148.666 124.733 147.748C124.834 146.933 125.139 146.219 125.543 145.607C126.505 144.232 128.125 143.364 129.999 143.364C131.873 143.364 133.544 144.18 134.455 145.607C134.86 146.219 135.164 146.933 135.265 147.748C135.417 148.666 135.366 149.736 135.113 150.857C134.506 153.558 132.733 156.82 129.999 160.336ZM152.836 157.686C152.583 157.074 152.329 156.412 152.076 155.851C151.671 154.934 151.266 154.067 150.911 153.252L150.861 153.201C147.367 145.556 143.62 137.81 139.67 130.167L139.519 129.86C139.113 129.096 138.708 128.28 138.304 127.465C137.797 126.547 137.29 125.58 136.481 124.662C134.86 122.623 132.531 121.502 130.049 121.502C127.518 121.502 125.239 122.623 123.568 124.56C122.809 125.477 122.252 126.445 121.746 127.363C121.34 128.179 120.935 128.994 120.53 129.759L120.378 130.064C116.48 137.708 112.682 145.455 109.188 153.1L109.137 153.201C108.783 154.016 108.378 154.883 107.972 155.801C107.701 156.405 107.448 157.016 107.213 157.635C106.555 159.521 106.352 161.305 106.605 163.139C107.163 166.961 109.694 170.173 113.188 171.599C114.504 172.16 115.872 172.415 117.29 172.415C117.695 172.415 118.201 172.364 118.606 172.312C120.277 172.108 121.999 171.549 123.669 170.58C125.746 169.408 127.721 167.726 129.948 165.28C132.176 167.726 134.202 169.408 136.227 170.58C137.898 171.549 139.62 172.108 141.291 172.312C141.696 172.364 142.202 172.415 142.607 172.415C144.025 172.415 145.443 172.16 146.709 171.599C150.253 170.173 152.734 166.911 153.291 163.139C153.696 161.355 153.493 159.572 152.835 157.686L152.836 157.686Z" fill="#E0565B"/>
</g>
<g clip-path="url(#clip8)">
<path d="M203.5 130.502V132.758H219.656V130.502H203.5ZM221.945 130.502V132.758H244.968C244.968 132.758 242.616 130.502 239.501 130.502H221.945ZM249.484 130.502V132.758H263.412L262.586 130.502H249.484ZM273.398 130.502L272.572 132.758H286.374V130.502H273.398ZM203.5 134.889V137.144H219.656V134.889H203.5ZM221.945 134.892V137.144H247.639C247.639 137.144 247.339 135.408 246.816 134.892H221.945ZM249.484 134.892V137.144H264.939L264.174 134.892H249.484ZM271.745 134.892L270.98 137.144H286.374V134.892H271.745ZM208.143 139.275V141.534H215.139V139.275H208.143ZM226.588 139.275V141.534H233.584V139.275H226.588ZM240.39 139.275V141.534H247.386C247.386 141.534 247.83 140.341 247.83 139.275H240.39V139.275ZM254.127 139.275V141.534H266.531L265.705 139.275H254.127V139.275ZM270.221 139.275L269.391 141.534H281.857V139.275H270.221ZM208.143 143.665V145.92H215.139V143.665H208.143ZM226.588 143.665V145.92H244.459C244.459 145.92 245.954 144.763 246.43 143.665H226.588V143.665ZM254.127 143.665V145.92H261.123V144.665L261.568 145.92H274.384L274.861 144.665V145.92H281.857V143.665H268.723L268.026 145.576L267.326 143.665H254.127ZM208.143 148.051V150.307H215.139V148.051H208.143ZM226.588 148.051V150.307H246.43C245.953 149.212 244.459 148.051 244.459 148.051H226.588ZM254.127 148.051V150.307H261.123V148.051H254.127ZM262.394 148.051L263.241 150.307H272.85L273.654 148.051H262.394ZM274.861 148.051V150.307H281.857V148.051H274.861ZM208.143 152.438V154.693H215.139V152.438H208.143ZM226.588 152.438V154.693H233.584V152.438H226.588ZM240.39 152.438V154.693H247.83C247.83 153.629 247.386 152.438 247.386 152.438H240.39ZM254.127 152.438V154.693H261.123V152.438H254.127ZM263.983 152.438L264.803 154.693H271.246L272.072 152.438H263.983ZM274.861 152.438V154.693H281.857V152.438H274.861ZM203.626 156.825V159.083H219.782V156.824H203.626V156.825ZM221.945 156.825V159.083H246.816C247.339 158.566 247.639 156.824 247.639 156.824H221.945V156.825ZM249.61 156.825V159.083H261.123V156.824H249.61V156.825ZM265.575 156.825L266.418 159.083H269.696L270.487 156.824H265.575V156.825ZM274.861 156.825V159.083H286.5V156.824H274.861V156.825ZM203.626 161.214V163.47H219.782V161.214H203.626ZM221.945 161.214V163.466H239.501C242.616 163.466 244.968 161.214 244.968 161.214H221.945V161.214ZM249.61 161.214V163.47H261.123V161.214H249.61ZM267.173 161.214L267.984 163.463L268.123 163.466L268.947 161.214H267.173V161.214ZM274.861 161.214V163.47H286.5V161.214H274.861Z" fill="#1F70C1"/>
</g>
</g>
</g>
<defs>
<linearGradient id="paint0_linear" x1="33.5" y1="6.22852" x2="33.5" y2="66.2285" gradientUnits="userSpaceOnUse">
<stop stop-color="#17C9FB"/>
<stop offset="1" stop-color="#1A74E8"/>
</linearGradient>
<linearGradient id="paint1_linear" x1="173.345" y1="18.8357" x2="113.5" y2="18.8357" gradientUnits="userSpaceOnUse">
<stop stop-color="#37BDA6"/>
<stop offset="1" stop-color="#8AD3B8"/>
</linearGradient>
<linearGradient id="paint2_linear" x1="173.345" y1="40.4298" x2="113.5" y2="40.4298" gradientUnits="userSpaceOnUse">
<stop offset="0.5" stop-color="#4BB6AD"/>
<stop offset="1" stop-color="#78BBC1"/>
</linearGradient>
<linearGradient id="paint3_linear" x1="143.423" y1="40.4298" x2="173.345" y2="40.4298" gradientUnits="userSpaceOnUse">
<stop stop-color="#4379A7"/>
<stop offset="1" stop-color="#7CC9B8"/>
</linearGradient>
<clipPath id="clip0">
<rect width="286" height="171.547" fill="white" transform="translate(0.5 0.955078)"/>
</clipPath>
<clipPath id="clip1">
<rect width="280" height="70.5469" fill="white" transform="translate(3.5 0.955078)"/>
</clipPath>
<clipPath id="clip2">
<rect width="60" height="60" fill="white" transform="translate(3.5 6.22852)"/>
</clipPath>
<clipPath id="clip3">
<rect width="60" height="60.7031" fill="white" transform="translate(113.5 5.87695)"/>
</clipPath>
<clipPath id="clip4">
<rect width="60" height="70.5469" fill="white" transform="translate(223.5 0.955078)"/>
</clipPath>
<clipPath id="clip5">
<rect width="286" height="51" fill="white" transform="translate(0.5 121.502)"/>
</clipPath>
<clipPath id="clip6">
<rect width="56" height="46" fill="white" transform="translate(0.5 124.002)"/>
</clipPath>
<clipPath id="clip7">
<rect width="47" height="51" fill="white" transform="translate(106.5 121.502)"/>
</clipPath>
<clipPath id="clip8">
<rect width="83" height="33" fill="white" transform="translate(203.5 130.502)"/>
</clipPath>
</defs>
</svg>
